<!-- Generated by IcoMoon.io -->
<svg version="1.1" xmlns="http://www.w3.org/2000/svg" width="32" height="32" viewBox="0 0 32 32">
<title>search-icon</title>
<path fill="#ffffff" d="M31.279 27.795l-5.782-5.78c1.585-2.272 2.522-5.027 2.522-8.005 0-7.737-6.272-14.010-14.010-14.010s-14.010 6.272-14.010 14.010c0 7.737 6.272 14.010 14.010 14.010 2.978 0 5.734-0.937 8.005-2.522l5.78 5.78c0.963 0.963 2.522 0.963 3.484 0 0.961-0.961 0.961-2.52 0-3.482zM14.010 24.017c-5.526 0-10.007-4.481-10.007-10.007s4.481-10.007 10.007-10.007 10.007 4.481 10.007 10.007c0 5.526-4.481 10.007-10.007 10.007z"></path>
</svg>
